# xmcd
#
# Track frame offsets:
#	225
#	15072
#	29169
#	38600
#	55917
#	72694
#	85193
#	96284
#	109548
#	122390
#	135954
#	157479
#	172170
#	186215
#	195384
#	205804
#	217436
#	233102
#	249708
#	268741
#
# Disc length: 3772 seconds
#
# Revision: 1
# Processed by: cddbd v1.5.2PL0 Copyright (c) Steve Scherf et al.
# Submitted via: audiograbber 1.83.01
#
DISCID=250eb914
DTITLE=Golden Flute - Golden Pan Flute
DYEAR=1900
DGENRE=Easy Listening
TTITLE0=Annie's song
TTITLE1=Yesterday once more
TTITLE2=Scarborough fair
TTITLE3=Memory
TTITLE4=Woman in love
TTITLE5=Speak softly
TTITLE6=Morning has broken
TTITLE7=Sailing
TTITLE8=Greensleeves
TTITLE9=Danny boy
TTITLE10=Feeling
TTITLE11=Let it be
TTITLE12=Mull of Kintyre
TTITLE13=Banks of the Ohio
TTITLE14=Swanee River
TTITLE15=Maladie D'Amour
TTITLE16=Home on the range
TTITLE17=Don't cry for me Argentina
TTITLE18=All at once
TTITLE19=Yesterday
EXTD=
EXTT0=
EXTT1=
EXTT2=
EXTT3=
EXTT4=
EXTT5=
EXTT6=
EXTT7=
EXTT8=
EXTT9=
EXTT10=
EXTT11=
EXTT12=
EXTT13=
EXTT14=
EXTT15=
EXTT16=
EXTT17=
EXTT18=
EXTT19=
PLAYORDER=
